<mxfile host="65bd71144e">
    <diagram id="2rHkpV9GjdSg73lqdJGZ" name="Page-1">
        <mxGraphModel dx="397" dy="766" grid="1" gridSize="10" guides="1" tooltips="1" connect="1" arrows="1" fold="1" page="1" pageScale="1" pageWidth="827" pageHeight="1169" math="0" shadow="0">
            <root>
                <mxCell id="0"/>
                <mxCell id="1" parent="0"/>
                <mxCell id="n2FqQn0OtpyuPOLJ4HXk-1" value="" style="shape=umlActor;verticalLabelPosition=bottom;verticalAlign=top;html=1;outlineConnect=0;" parent="1" vertex="1">
                    <mxGeometry x="285" y="95" width="30" height="60" as="geometry"/>
                </mxCell>
                <mxCell id="n2FqQn0OtpyuPOLJ4HXk-2" value=":System" style="rounded=0;whiteSpace=wrap;html=1;" parent="1" vertex="1">
                    <mxGeometry x="510" y="90" width="120" height="60" as="geometry"/>
                </mxCell>
                <mxCell id="n2FqQn0OtpyuPOLJ4HXk-49" value="opt" style="shape=umlFrame;tabWidth=110;tabHeight=30;tabPosition=left;html=1;boundedLbl=1;labelInHeader=1;width=140;height=30;swimlaneFillColor=none;" parent="1" vertex="1">
                    <mxGeometry x="80" y="178" width="590" height="740" as="geometry"/>
                </mxCell>
                <mxCell id="n2FqQn0OtpyuPOLJ4HXk-50" value="loop" style="shape=umlFrame;tabWidth=110;tabHeight=30;tabPosition=left;html=1;boundedLbl=1;labelInHeader=1;width=80;height=26;fillColor=#f5f5f5;fontColor=#333333;strokeColor=#666666;swimlaneFillColor=#F5F5F5;" parent="n2FqQn0OtpyuPOLJ4HXk-49" vertex="1">
                    <mxGeometry x="100" y="130" width="450" height="80" as="geometry"/>
                </mxCell>
                <mxCell id="n2FqQn0OtpyuPOLJ4HXk-51" value="[more item]" style="text;fillColor=#f5f5f5;fontColor=#333333;strokeColor=none;" parent="n2FqQn0OtpyuPOLJ4HXk-50" vertex="1">
                    <mxGeometry width="100" height="20" relative="1" as="geometry">
                        <mxPoint x="20" y="40" as="offset"/>
                    </mxGeometry>
                </mxCell>
                <mxCell id="n2FqQn0OtpyuPOLJ4HXk-52" value="[select=1]" style="text" parent="n2FqQn0OtpyuPOLJ4HXk-49" vertex="1">
                    <mxGeometry width="100" height="20" relative="1" as="geometry">
                        <mxPoint x="20" y="40" as="offset"/>
                    </mxGeometry>
                </mxCell>
                <mxCell id="n2FqQn0OtpyuPOLJ4HXk-53" value="[select=2]" style="line;strokeWidth=1;dashed=1;labelPosition=center;verticalLabelPosition=bottom;align=left;verticalAlign=top;spacingLeft=20;spacingTop=15;" parent="n2FqQn0OtpyuPOLJ4HXk-49" vertex="1">
                    <mxGeometry y="360" width="590" height="10" as="geometry"/>
                </mxCell>
                <mxCell id="n2FqQn0OtpyuPOLJ4HXk-54" value="[select=3]" style="line;strokeWidth=1;dashed=1;labelPosition=center;verticalLabelPosition=bottom;align=left;verticalAlign=top;spacingLeft=20;spacingTop=15;" parent="n2FqQn0OtpyuPOLJ4HXk-49" vertex="1">
                    <mxGeometry y="570" width="590" height="10" as="geometry"/>
                </mxCell>
                <mxCell id="n2FqQn0OtpyuPOLJ4HXk-55" value="" style="endArrow=none;startArrow=none;endFill=0;startFill=0;endSize=8;html=1;verticalAlign=bottom;dashed=1;labelBackgroundColor=none;rounded=0;" parent="n2FqQn0OtpyuPOLJ4HXk-49" edge="1">
                    <mxGeometry x="-0.5" y="50" width="160" relative="1" as="geometry">
                        <mxPoint x="220" y="762" as="sourcePoint"/>
                        <mxPoint x="219.82608695652175" y="-29.01960784313726" as="targetPoint"/>
                        <mxPoint as="offset"/>
                    </mxGeometry>
                </mxCell>
                <mxCell id="n2FqQn0OtpyuPOLJ4HXk-56" value="" style="html=1;verticalAlign=bottom;labelBackgroundColor=none;endArrow=block;endFill=1;rounded=0;" parent="n2FqQn0OtpyuPOLJ4HXk-49" edge="1">
                    <mxGeometry width="160" relative="1" as="geometry">
                        <mxPoint x="220" y="29" as="sourcePoint"/>
                        <mxPoint x="489.5" y="28.529411764705856" as="targetPoint"/>
                    </mxGeometry>
                </mxCell>
                <mxCell id="n2FqQn0OtpyuPOLJ4HXk-57" value="inputOrder( )" style="edgeLabel;html=1;align=center;verticalAlign=middle;resizable=0;points=[];" parent="n2FqQn0OtpyuPOLJ4HXk-56" vertex="1" connectable="0">
                    <mxGeometry x="0.1503" y="4" relative="1" as="geometry">
                        <mxPoint x="-17" y="-6" as="offset"/>
                    </mxGeometry>
                </mxCell>
                <mxCell id="n2FqQn0OtpyuPOLJ4HXk-58" value="" style="html=1;verticalAlign=bottom;labelBackgroundColor=none;endArrow=block;endFill=1;dashed=1;rounded=0;" parent="n2FqQn0OtpyuPOLJ4HXk-49" edge="1">
                    <mxGeometry width="160" relative="1" as="geometry">
                        <mxPoint x="489.5" y="58.86274509803923" as="sourcePoint"/>
                        <mxPoint x="220" y="58.86274509803923" as="targetPoint"/>
                    </mxGeometry>
                </mxCell>
                <mxCell id="n2FqQn0OtpyuPOLJ4HXk-59" value="newOrder" style="edgeLabel;html=1;align=center;verticalAlign=middle;resizable=0;points=[];" parent="n2FqQn0OtpyuPOLJ4HXk-58" vertex="1" connectable="0">
                    <mxGeometry x="-0.128" relative="1" as="geometry">
                        <mxPoint x="-13" y="-13" as="offset"/>
                    </mxGeometry>
                </mxCell>
                <mxCell id="n2FqQn0OtpyuPOLJ4HXk-60" value="" style="html=1;verticalAlign=bottom;labelBackgroundColor=none;endArrow=block;endFill=1;rounded=0;entryX=0.47;entryY=0.188;entryDx=0;entryDy=0;entryPerimeter=0;" parent="n2FqQn0OtpyuPOLJ4HXk-49" edge="1">
                    <mxGeometry width="160" relative="1" as="geometry">
                        <mxPoint x="220" y="87.29411764705884" as="sourcePoint"/>
                        <mxPoint x="489.5" y="87.29411764705884" as="targetPoint"/>
                    </mxGeometry>
                </mxCell>
                <mxCell id="n2FqQn0OtpyuPOLJ4HXk-61" value="getCustomer(customerID, customerName)" style="edgeLabel;html=1;align=center;verticalAlign=middle;resizable=0;points=[];" parent="n2FqQn0OtpyuPOLJ4HXk-60" vertex="1" connectable="0">
                    <mxGeometry x="0.1503" y="4" relative="1" as="geometry">
                        <mxPoint x="-17" y="-6" as="offset"/>
                    </mxGeometry>
                </mxCell>
                <mxCell id="n2FqQn0OtpyuPOLJ4HXk-62" value="" style="html=1;verticalAlign=bottom;labelBackgroundColor=none;endArrow=block;endFill=1;dashed=1;rounded=0;" parent="n2FqQn0OtpyuPOLJ4HXk-49" edge="1">
                    <mxGeometry width="160" relative="1" as="geometry">
                        <mxPoint x="489.5" y="118.62745098039218" as="sourcePoint"/>
                        <mxPoint x="220" y="118.62745098039218" as="targetPoint"/>
                    </mxGeometry>
                </mxCell>
                <mxCell id="n2FqQn0OtpyuPOLJ4HXk-63" value="customer" style="edgeLabel;html=1;align=center;verticalAlign=middle;resizable=0;points=[];" parent="n2FqQn0OtpyuPOLJ4HXk-62" vertex="1" connectable="0">
                    <mxGeometry x="-0.128" relative="1" as="geometry">
                        <mxPoint x="-13" y="-13" as="offset"/>
                    </mxGeometry>
                </mxCell>
                <mxCell id="n2FqQn0OtpyuPOLJ4HXk-64" value="" style="html=1;verticalAlign=bottom;labelBackgroundColor=none;endArrow=block;endFill=1;rounded=0;" parent="n2FqQn0OtpyuPOLJ4HXk-49" edge="1">
                    <mxGeometry width="160" relative="1" as="geometry">
                        <mxPoint x="220" y="156.00411764705876" as="sourcePoint"/>
                        <mxPoint x="489.5" y="156.00411764705876" as="targetPoint"/>
                    </mxGeometry>
                </mxCell>
                <mxCell id="n2FqQn0OtpyuPOLJ4HXk-65" value="addItem(bookID, quantity)" style="edgeLabel;html=1;align=center;verticalAlign=middle;resizable=0;points=[];labelBackgroundColor=#F5F5F5;" parent="n2FqQn0OtpyuPOLJ4HXk-64" vertex="1" connectable="0">
                    <mxGeometry x="0.1503" y="4" relative="1" as="geometry">
                        <mxPoint x="-17" y="-6" as="offset"/>
                    </mxGeometry>
                </mxCell>
                <mxCell id="n2FqQn0OtpyuPOLJ4HXk-66" value="" style="html=1;verticalAlign=bottom;labelBackgroundColor=none;endArrow=block;endFill=1;dashed=1;rounded=0;" parent="n2FqQn0OtpyuPOLJ4HXk-49" edge="1">
                    <mxGeometry width="160" relative="1" as="geometry">
                        <mxPoint x="489.5" y="191.99745098039205" as="sourcePoint"/>
                        <mxPoint x="220" y="191.99745098039205" as="targetPoint"/>
                    </mxGeometry>
                </mxCell>
                <mxCell id="n2FqQn0OtpyuPOLJ4HXk-67" value="orderItem" style="edgeLabel;html=1;align=center;verticalAlign=middle;resizable=0;points=[];labelBackgroundColor=#F5F5F5;" parent="n2FqQn0OtpyuPOLJ4HXk-66" vertex="1" connectable="0">
                    <mxGeometry x="-0.128" relative="1" as="geometry">
                        <mxPoint x="-13" y="-13" as="offset"/>
                    </mxGeometry>
                </mxCell>
                <mxCell id="n2FqQn0OtpyuPOLJ4HXk-68" value="" style="html=1;verticalAlign=bottom;labelBackgroundColor=none;endArrow=block;endFill=1;rounded=0;" parent="n2FqQn0OtpyuPOLJ4HXk-49" edge="1">
                    <mxGeometry width="160" relative="1" as="geometry">
                        <mxPoint x="220" y="232.00411764705882" as="sourcePoint"/>
                        <mxPoint x="489.5" y="232.00411764705882" as="targetPoint"/>
                    </mxGeometry>
                </mxCell>
                <mxCell id="n2FqQn0OtpyuPOLJ4HXk-69" value="checkOrderItem(orderItem)" style="edgeLabel;html=1;align=center;verticalAlign=middle;resizable=0;points=[];" parent="n2FqQn0OtpyuPOLJ4HXk-68" vertex="1" connectable="0">
                    <mxGeometry x="0.1503" y="4" relative="1" as="geometry">
                        <mxPoint x="-17" y="-6" as="offset"/>
                    </mxGeometry>
                </mxCell>
                <mxCell id="n2FqQn0OtpyuPOLJ4HXk-70" value="" style="html=1;verticalAlign=bottom;labelBackgroundColor=none;endArrow=block;endFill=1;dashed=1;rounded=0;" parent="n2FqQn0OtpyuPOLJ4HXk-49" edge="1">
                    <mxGeometry width="160" relative="1" as="geometry">
                        <mxPoint x="489.5" y="266.99745098039193" as="sourcePoint"/>
                        <mxPoint x="220" y="266.99745098039193" as="targetPoint"/>
                    </mxGeometry>
                </mxCell>
                <mxCell id="n2FqQn0OtpyuPOLJ4HXk-71" value="itemMessage" style="edgeLabel;html=1;align=center;verticalAlign=middle;resizable=0;points=[];" parent="n2FqQn0OtpyuPOLJ4HXk-70" vertex="1" connectable="0">
                    <mxGeometry x="-0.128" relative="1" as="geometry">
                        <mxPoint x="-13" y="-13" as="offset"/>
                    </mxGeometry>
                </mxCell>
                <mxCell id="n2FqQn0OtpyuPOLJ4HXk-72" value="" style="html=1;verticalAlign=bottom;labelBackgroundColor=none;endArrow=block;endFill=1;rounded=0;" parent="n2FqQn0OtpyuPOLJ4HXk-49" edge="1">
                    <mxGeometry width="160" relative="1" as="geometry">
                        <mxPoint x="220" y="301.0041176470588" as="sourcePoint"/>
                        <mxPoint x="489.5" y="301.0041176470588" as="targetPoint"/>
                    </mxGeometry>
                </mxCell>
                <mxCell id="n2FqQn0OtpyuPOLJ4HXk-73" value="saveOrder(newOrder)" style="edgeLabel;html=1;align=center;verticalAlign=middle;resizable=0;points=[];" parent="n2FqQn0OtpyuPOLJ4HXk-72" vertex="1" connectable="0">
                    <mxGeometry x="0.1503" y="4" relative="1" as="geometry">
                        <mxPoint x="-17" y="-6" as="offset"/>
                    </mxGeometry>
                </mxCell>
                <mxCell id="n2FqQn0OtpyuPOLJ4HXk-74" value="" style="html=1;verticalAlign=bottom;labelBackgroundColor=none;endArrow=block;endFill=1;dashed=1;rounded=0;" parent="n2FqQn0OtpyuPOLJ4HXk-49" edge="1">
                    <mxGeometry width="160" relative="1" as="geometry">
                        <mxPoint x="489.5" y="336.99745098039193" as="sourcePoint"/>
                        <mxPoint x="220" y="336.99745098039193" as="targetPoint"/>
                    </mxGeometry>
                </mxCell>
                <mxCell id="n2FqQn0OtpyuPOLJ4HXk-75" value="saveSuccess" style="edgeLabel;html=1;align=center;verticalAlign=middle;resizable=0;points=[];" parent="n2FqQn0OtpyuPOLJ4HXk-74" vertex="1" connectable="0">
                    <mxGeometry x="-0.128" relative="1" as="geometry">
                        <mxPoint x="-13" y="-13" as="offset"/>
                    </mxGeometry>
                </mxCell>
                <mxCell id="n2FqQn0OtpyuPOLJ4HXk-76" value="" style="html=1;verticalAlign=bottom;labelBackgroundColor=none;endArrow=block;endFill=1;rounded=0;" parent="n2FqQn0OtpyuPOLJ4HXk-49" edge="1">
                    <mxGeometry width="160" relative="1" as="geometry">
                        <mxPoint x="220" y="392.0041176470588" as="sourcePoint"/>
                        <mxPoint x="489.5" y="392.0041176470588" as="targetPoint"/>
                    </mxGeometry>
                </mxCell>
                <mxCell id="n2FqQn0OtpyuPOLJ4HXk-77" value="modifyOrder(order)" style="edgeLabel;html=1;align=center;verticalAlign=middle;resizable=0;points=[];" parent="n2FqQn0OtpyuPOLJ4HXk-76" vertex="1" connectable="0">
                    <mxGeometry x="0.1503" y="4" relative="1" as="geometry">
                        <mxPoint x="-17" y="-6" as="offset"/>
                    </mxGeometry>
                </mxCell>
                <mxCell id="n2FqQn0OtpyuPOLJ4HXk-78" value="" style="html=1;verticalAlign=bottom;labelBackgroundColor=none;endArrow=block;endFill=1;dashed=1;rounded=0;" parent="n2FqQn0OtpyuPOLJ4HXk-49" edge="1">
                    <mxGeometry width="160" relative="1" as="geometry">
                        <mxPoint x="489.5" y="423.99745098039193" as="sourcePoint"/>
                        <mxPoint x="220" y="423.99745098039193" as="targetPoint"/>
                    </mxGeometry>
                </mxCell>
                <mxCell id="n2FqQn0OtpyuPOLJ4HXk-79" value="order" style="edgeLabel;html=1;align=center;verticalAlign=middle;resizable=0;points=[];" parent="n2FqQn0OtpyuPOLJ4HXk-78" vertex="1" connectable="0">
                    <mxGeometry x="-0.128" relative="1" as="geometry">
                        <mxPoint x="-13" y="-13" as="offset"/>
                    </mxGeometry>
                </mxCell>
                <mxCell id="n2FqQn0OtpyuPOLJ4HXk-80" value="" style="html=1;verticalAlign=bottom;labelBackgroundColor=none;endArrow=block;endFill=1;rounded=0;" parent="n2FqQn0OtpyuPOLJ4HXk-49" edge="1">
                    <mxGeometry width="160" relative="1" as="geometry">
                        <mxPoint x="220" y="454.0041176470588" as="sourcePoint"/>
                        <mxPoint x="489.5" y="454.0041176470588" as="targetPoint"/>
                    </mxGeometry>
                </mxCell>
                <mxCell id="n2FqQn0OtpyuPOLJ4HXk-81" value="checkOrderItem(orderItem)" style="edgeLabel;html=1;align=center;verticalAlign=middle;resizable=0;points=[];" parent="n2FqQn0OtpyuPOLJ4HXk-80" vertex="1" connectable="0">
                    <mxGeometry x="0.1503" y="4" relative="1" as="geometry">
                        <mxPoint x="-17" y="-6" as="offset"/>
                    </mxGeometry>
                </mxCell>
                <mxCell id="n2FqQn0OtpyuPOLJ4HXk-82" value="" style="html=1;verticalAlign=bottom;labelBackgroundColor=none;endArrow=block;endFill=1;dashed=1;rounded=0;" parent="n2FqQn0OtpyuPOLJ4HXk-49" edge="1">
                    <mxGeometry width="160" relative="1" as="geometry">
                        <mxPoint x="489.5" y="487.99745098039193" as="sourcePoint"/>
                        <mxPoint x="220" y="487.99745098039193" as="targetPoint"/>
                    </mxGeometry>
                </mxCell>
                <mxCell id="n2FqQn0OtpyuPOLJ4HXk-83" value="itemMessage" style="edgeLabel;html=1;align=center;verticalAlign=middle;resizable=0;points=[];" parent="n2FqQn0OtpyuPOLJ4HXk-82" vertex="1" connectable="0">
                    <mxGeometry x="-0.128" relative="1" as="geometry">
                        <mxPoint x="-13" y="-13" as="offset"/>
                    </mxGeometry>
                </mxCell>
                <mxCell id="n2FqQn0OtpyuPOLJ4HXk-84" value="" style="html=1;verticalAlign=bottom;labelBackgroundColor=none;endArrow=block;endFill=1;rounded=0;" parent="n2FqQn0OtpyuPOLJ4HXk-49" edge="1">
                    <mxGeometry width="160" relative="1" as="geometry">
                        <mxPoint x="220" y="518.0041176470588" as="sourcePoint"/>
                        <mxPoint x="489.5" y="518.0041176470588" as="targetPoint"/>
                    </mxGeometry>
                </mxCell>
                <mxCell id="n2FqQn0OtpyuPOLJ4HXk-85" value="saveOrder(order)" style="edgeLabel;html=1;align=center;verticalAlign=middle;resizable=0;points=[];" parent="n2FqQn0OtpyuPOLJ4HXk-84" vertex="1" connectable="0">
                    <mxGeometry x="0.1503" y="4" relative="1" as="geometry">
                        <mxPoint x="-17" y="-6" as="offset"/>
                    </mxGeometry>
                </mxCell>
                <mxCell id="n2FqQn0OtpyuPOLJ4HXk-86" value="" style="html=1;verticalAlign=bottom;labelBackgroundColor=none;endArrow=block;endFill=1;dashed=1;rounded=0;" parent="n2FqQn0OtpyuPOLJ4HXk-49" edge="1">
                    <mxGeometry width="160" relative="1" as="geometry">
                        <mxPoint x="489.5" y="551.9974509803919" as="sourcePoint"/>
                        <mxPoint x="220" y="551.9974509803919" as="targetPoint"/>
                    </mxGeometry>
                </mxCell>
                <mxCell id="n2FqQn0OtpyuPOLJ4HXk-87" value="saveSuccess" style="edgeLabel;html=1;align=center;verticalAlign=middle;resizable=0;points=[];" parent="n2FqQn0OtpyuPOLJ4HXk-86" vertex="1" connectable="0">
                    <mxGeometry x="-0.128" relative="1" as="geometry">
                        <mxPoint x="-13" y="-13" as="offset"/>
                    </mxGeometry>
                </mxCell>
                <mxCell id="n2FqQn0OtpyuPOLJ4HXk-88" value="" style="html=1;verticalAlign=bottom;labelBackgroundColor=none;endArrow=block;endFill=1;rounded=0;" parent="n2FqQn0OtpyuPOLJ4HXk-49" edge="1">
                    <mxGeometry width="160" relative="1" as="geometry">
                        <mxPoint x="220" y="612.0041176470588" as="sourcePoint"/>
                        <mxPoint x="489.5" y="612.0041176470588" as="targetPoint"/>
                    </mxGeometry>
                </mxCell>
                <mxCell id="n2FqQn0OtpyuPOLJ4HXk-89" value="deleteOrder(order)" style="edgeLabel;html=1;align=center;verticalAlign=middle;resizable=0;points=[];" parent="n2FqQn0OtpyuPOLJ4HXk-88" vertex="1" connectable="0">
                    <mxGeometry x="0.1503" y="4" relative="1" as="geometry">
                        <mxPoint x="-17" y="-6" as="offset"/>
                    </mxGeometry>
                </mxCell>
                <mxCell id="n2FqQn0OtpyuPOLJ4HXk-90" value="" style="html=1;verticalAlign=bottom;labelBackgroundColor=none;endArrow=block;endFill=1;dashed=1;rounded=0;" parent="n2FqQn0OtpyuPOLJ4HXk-49" edge="1">
                    <mxGeometry width="160" relative="1" as="geometry">
                        <mxPoint x="489.5" y="641.9974509803919" as="sourcePoint"/>
                        <mxPoint x="220" y="641.9974509803919" as="targetPoint"/>
                    </mxGeometry>
                </mxCell>
                <mxCell id="n2FqQn0OtpyuPOLJ4HXk-91" value="deleteSuccess" style="edgeLabel;html=1;align=center;verticalAlign=middle;resizable=0;points=[];" parent="n2FqQn0OtpyuPOLJ4HXk-90" vertex="1" connectable="0">
                    <mxGeometry x="-0.128" relative="1" as="geometry">
                        <mxPoint x="-13" y="-13" as="offset"/>
                    </mxGeometry>
                </mxCell>
                <mxCell id="n2FqQn0OtpyuPOLJ4HXk-96" value="" style="endArrow=none;dashed=1;html=1;rounded=0;entryX=0.5;entryY=1;entryDx=0;entryDy=0;" parent="1" target="n2FqQn0OtpyuPOLJ4HXk-2" edge="1">
                    <mxGeometry width="50" height="50" relative="1" as="geometry">
                        <mxPoint x="570" y="980" as="sourcePoint"/>
                        <mxPoint x="570" y="160" as="targetPoint"/>
                    </mxGeometry>
                </mxCell>
            </root>
        </mxGraphModel>
    </diagram>
</mxfile>